<svg width="32" height="32" viewBox="0 0 32 32" fill="none" xmlns="http://www.w3.org/2000/svg">
    <path fill-rule="evenodd" clip-rule="evenodd" d="M9.27092 7.37324L9.27072 7.37477L9.27049 7.37648L9.27022 7.37847C9.2353 7.63649 9.20061 7.8928 9.1659 8.14471C8.98203 9.47887 8.22869 10.6939 7.54787 11.7117C7.45747 11.8468 7.36869 11.9779 7.28229 12.1055L7.28227 12.1056C7.03449 12.4715 6.80621 12.8086 6.61488 13.1298C6.35503 13.5659 6.1985 13.9173 6.15768 14.2029C6.11702 14.4872 6.07812 15.334 6.05484 16.2152C6.04167 16.714 6.03397 17.2039 6.03302 17.5856L6.03552 17.584C6.00662 18.2006 6.82347 18.9915 6.80223 18.2025C6.74645 17.5132 6.93036 16.8897 7.21798 16.2924C7.46083 15.7881 7.79249 15.2749 8.13358 14.7471C8.20745 14.6328 8.28176 14.5178 8.35571 14.402C8.93889 13.4893 9.54668 12.4621 9.92688 11.1502V5.96947L21.4782 9.59462V13.459H22.3179V8.98255L9.92686 4.99998V5.00192L9.59594 5.09273C9.48108 5.82024 9.375 6.60418 9.27094 7.37313L9.27094 7.37317L9.27092 7.37324ZM7.64617 18.2072C7.67843 18.4911 7.70667 18.7301 7.73144 18.9329C7.7893 19.1867 8.02455 19.4552 8.58245 19.1633C8.64313 19.1224 8.70516 19.0828 8.76854 19.0447C9.18535 18.7158 9.61395 18.312 9.92688 17.781V13.3825C9.64778 13.9219 9.34912 14.4067 9.06324 14.8541C8.98282 14.98 8.9042 15.1017 8.82779 15.2201C8.48832 15.7458 8.19233 16.2043 7.97446 16.6567C7.71351 17.1986 7.58735 17.6896 7.64617 18.2072ZM4.44611 14.9224C4.49692 14.9578 4.54499 14.9905 4.59035 15.0213C5.09286 15.363 5.26331 15.479 5.14713 16.4884L5.14881 16.489C5.02806 17.1607 4.50311 16.9977 4.01007 16.8446C3.86308 16.799 3.71894 16.7542 3.58918 16.7327C3.50693 16.7072 3.42431 16.6845 3.3414 16.665C3.2195 16.6364 3.1061 16.6082 2.99999 16.5801V14.0389C3.46715 14.2885 3.94148 14.5845 4.44611 14.9224ZM2.99999 13.0968C3.46858 13.3237 3.93196 13.5918 4.40522 13.8925C4.78208 14.1049 5.12853 14.2082 5.31954 13.7985C5.3292 13.7698 5.63247 12.8645 5.50646 12.4118C5.32935 11.7755 4.83554 11.0327 4.83554 11.0327L4.83599 11.0322C4.7161 10.8484 4.59623 10.6552 4.47843 10.4539C3.88896 9.44676 3.33158 8.20442 3.08677 6.87899L2.99999 6.90281V13.0968ZM5.48166 10.4845C5.38869 10.3394 5.29544 10.1876 5.20307 10.0298C4.63133 9.05295 4.11345 7.87786 3.89974 6.6559L8.70893 5.33615C8.61379 5.96771 8.52443 6.62818 8.43762 7.26985L8.43761 7.26991L8.43747 7.27098L8.43722 7.27278C8.40252 7.52924 8.36823 7.78269 8.33414 8.03008C8.21984 8.85939 7.83741 9.66047 7.36857 10.4361L7.36753 10.4357C6.7429 11.3437 5.80057 10.9376 5.48166 10.4845ZM2.99999 17.4465C3.04857 17.4585 3.09835 17.4704 3.14939 17.4824C3.8688 17.6514 4.62708 18.1513 5.31571 18.7292C5.83927 19.1687 6.28856 19.6226 6.63179 19.9694L6.63184 19.9695L6.63189 19.9695L6.63194 19.9696C6.68823 20.0264 6.74167 20.0804 6.79211 20.131V21.5071C6.77968 22.0492 6.29685 22.1162 5.92281 21.9303C5.68957 21.8008 5.43326 21.6913 5.14982 21.5881C4.72539 21.4334 4.32174 21.3882 3.94478 21.3744C3.77548 21.3682 3.60684 21.3683 3.44642 21.3683L3.39769 21.3683C3.26136 21.3683 3.13012 21.3679 2.99999 21.3637V17.4465ZM6.79211 26.897V24.9199C6.77027 24.5985 6.7203 24.3108 6.63688 24.051C6.47948 23.6775 6.32537 23.4066 6.15687 23.1964C5.99265 23.0102 5.79325 22.8421 5.5543 22.6876L5.55469 22.6867C5.36471 22.5772 5.13941 22.4779 4.86239 22.377C4.55229 22.264 4.24535 22.2256 3.91401 22.2135C3.76127 22.2079 3.60834 22.2079 3.44549 22.2079H3.44544H3.4454H3.44535H3.44531H3.44526H3.44522H3.44517H3.44512H3.44508H3.44503H3.44499H3.44494L3.39763 22.208C3.2699 22.2079 3.13659 22.2076 2.99999 22.2037V26.897H6.79211ZM7.63174 26.897V22.1971L7.63404 22.1973C7.71386 21.2993 8.52793 19.9953 9.92688 19.5337V26.8929V26.897H7.63174Z" fill="#D9B396"/>
    <path d="M29 26.9409V15.7252L18.963 12.5141V26.8926" stroke="#D9B396" stroke-width="0.839623"/>
    <path d="M13.6985 13.8046L18.5448 11.9401V26.8914H13.6985V13.8046Z" fill="#D9B396"/>
</svg>